<svg viewBox="0 0 860 329" version="1.1" xmlns="http://www.w3.org/2000/svg" desc="Created with imagetracer.js version 1.2.6" ><path fill="none" stroke="none" stroke-width="0" opacity="1" d="M 0 0 L 860 0 L 860 329 L 0 329 L 0 0 Z M 108 40 L 102 113 L 101 114 L 99 135 L 95 154 L 94 155 L 85 155 L 81 133 L 79 112 L 78 111 L 75 67 L 73 69 L 73 78 L 72 79 L 72 89 L 71 90 L 69 115 L 60 160 Q 57 163 51 163 L 44 137 L 42 118 L 41 117 L 40 98 L 39 96 L 37 102 L 37 111 L 36 112 L 36 121 L 35 122 L 35 131 L 34 132 L 34 142 L 33 143 L 33 152 L 32 153 L 30 180 Q 48 185 62 197 Q 83 214 94 242 L 101 262 L 104 275 L 109 308 L 110 307 L 111 292 L 115 269 L 121 249 Q 128 228 141 213 Q 159 190 188 179 L 187 166 L 186 165 L 186 156 L 185 155 L 185 145 L 184 144 L 184 135 L 183 134 L 183 125 L 182 124 L 182 115 L 181 114 L 181 105 L 180 104 L 180 97 L 178 96 L 174 136 L 167 163 L 158 161 L 150 123 L 148 102 L 147 101 L 147 92 L 146 91 L 146 82 L 145 81 L 145 71 L 144 67 L 142 73 L 140 108 L 139 109 L 137 132 L 133 154 L 132 155 L 123 155 L 121 148 L 119 131 L 118 130 L 118 123 L 116 116 L 113 79 L 112 78 L 111 53 L 110 52 L 110 41 L 108 40 Z M 221 130 L 221 133 L 224 133 L 236 140 L 239 147 L 207 217 L 191 237 L 245 237 L 245 235 L 240 232 Q 233 228 230 221 L 230 213 L 250 172 L 280 243 Q 279 246 283 244 L 311 182 L 317 172 L 337 220 L 337 226 L 334 232 L 330 235 Q 327 234 328 237 L 389 237 L 389 236 L 387 234 Q 377 226 372 214 L 343 144 L 346 136 L 351 133 Q 354 132 351 130 L 297 130 L 296 133 L 300 134 Q 305 137 307 144 L 292 177 Q 293 179 290 178 L 271 132 L 270 130 L 221 130 Z M 409 130 L 407 132 L 410 133 L 416 141 L 386 207 L 386 211 L 389 216 L 404 233 Q 406 232 405 235 L 417 242 L 417 235 L 420 220 L 429 205 Q 437 195 450 192 L 449 190 L 417 190 L 430 160 L 437 148 L 467 220 Q 468 228 464 232 L 461 234 L 459 237 L 519 237 L 519 235 L 516 233 L 504 216 L 475 148 L 474 138 L 480 133 L 480 130 L 409 130 Z M 570 130 L 553 133 Q 540 137 531 145 Q 515 157 511 180 L 511 189 L 513 199 L 522 216 L 538 229 L 555 236 L 565 238 L 586 238 L 594 236 Q 610 234 618 241 Q 626 247 629 258 Q 628 261 631 260 L 631 185 L 630 183 L 580 183 L 579 185 L 587 188 L 592 195 L 592 222 L 589 224 L 584 225 Q 571 225 566 219 L 557 206 L 554 190 L 555 172 L 558 161 L 563 153 Q 568 147 576 144 L 586 144 L 597 150 L 604 161 L 604 164 L 607 165 L 622 134 L 622 130 L 570 130 Z M 647 130 L 654 139 L 658 150 L 658 218 L 657 223 L 651 233 L 647 236 L 648 237 L 703 237 L 696 229 L 692 217 L 692 152 Q 694 150 693 146 L 697 138 L 703 133 L 703 130 L 647 130 Z M 770 130 L 748 135 Q 737 139 730 147 Q 727 146 728 149 L 725 150 L 715 167 L 712 177 L 712 192 L 713 197 Q 716 208 723 216 Q 737 233 765 238 L 784 238 L 789 237 Q 805 232 817 222 Q 826 215 830 203 L 813 215 L 801 221 L 785 225 Q 774 225 769 221 L 762 215 L 758 207 L 755 195 L 756 169 Q 758 158 764 152 Q 769 146 777 144 Q 789 142 795 148 L 801 155 L 807 166 L 823 133 L 823 130 L 770 130 Z M 366 260 L 351 289 L 361 289 L 360 288 L 362 284 L 370 284 L 371 286 L 370 289 L 380 289 L 368 262 L 366 260 Z M 549 260 L 548 285 L 546 289 L 556 289 L 554 286 L 554 275 L 556 275 L 567 286 Q 569 285 568 288 L 572 290 L 573 289 L 573 264 L 574 263 L 574 261 L 564 261 L 566 265 L 566 276 L 549 260 Z M 196 261 L 194 263 L 195 269 Q 196 266 201 267 L 201 286 L 199 289 L 210 289 L 208 287 L 208 267 Q 213 266 215 269 L 215 263 L 214 261 L 196 261 Z M 226 261 L 228 266 L 228 285 L 226 288 L 227 289 L 237 289 L 235 287 L 235 278 L 245 278 Q 246 285 243 288 L 244 289 L 254 289 L 252 287 L 252 265 L 254 263 L 254 261 L 243 261 Q 246 264 245 271 L 235 272 L 235 265 L 237 263 L 236 261 L 226 261 Z M 265 261 L 267 265 L 267 286 L 265 289 L 284 289 L 285 282 L 282 283 L 280 283 L 274 283 L 274 277 Q 280 276 283 279 L 283 271 L 274 272 L 274 267 L 282 267 L 284 269 L 284 261 L 265 261 Z M 327 261 L 324 262 L 317 271 Q 315 280 319 285 L 329 290 Q 339 291 343 287 L 343 276 L 342 274 L 333 274 L 332 276 L 335 277 L 336 283 Q 335 286 329 284 L 324 279 L 324 272 L 326 268 L 332 266 L 339 268 L 340 269 L 340 261 L 327 261 Z M 389 261 L 387 263 L 388 269 Q 389 266 394 267 L 394 284 L 392 288 L 393 289 L 403 289 L 401 287 L 401 268 Q 401 267 406 267 L 408 269 Q 409 264 407 263 L 407 261 L 389 261 Z M 420 261 Q 416 263 420 265 L 420 287 L 418 289 L 429 289 L 427 285 L 427 278 L 437 278 L 437 287 L 435 289 L 446 289 L 444 286 L 444 266 L 446 263 L 446 261 L 435 261 L 437 265 Q 438 270 436 272 Q 429 274 427 271 Q 426 265 429 263 L 429 261 L 420 261 Z M 458 261 L 460 269 Q 461 279 459 287 L 458 289 L 477 289 L 477 282 L 475 283 Q 468 285 466 282 Q 465 278 468 277 Q 473 276 475 279 L 475 271 Q 473 273 468 272 Q 465 271 466 267 L 475 267 L 476 268 Q 478 269 477 263 L 476 261 L 458 261 Z M 489 261 L 491 265 L 491 287 L 489 289 L 500 289 L 498 286 L 499 275 L 505 286 Q 507 291 515 289 L 508 278 L 512 273 L 511 266 L 509 263 L 503 261 L 489 261 Z M 525 261 L 527 265 L 527 287 L 526 289 L 536 289 L 534 286 L 534 265 L 536 263 L 536 261 L 525 261 Z M 594 261 L 589 264 L 584 272 L 584 280 L 587 286 L 596 290 Q 604 291 609 288 L 610 288 L 610 274 L 600 274 L 599 276 L 603 279 Q 604 283 602 284 L 595 283 L 591 278 L 592 271 L 599 266 L 605 267 L 607 269 Q 610 269 608 263 L 607 261 L 594 261 Z " /><path fill="none" stroke="none" stroke-width="0" opacity="1" d="M 498 267 Q 503.5 265.8 505 269.5 L 504 273 L 498 274 L 498 267 Z " /><path fill="none" stroke="none" stroke-width="0" opacity="1" d="M 365.5 272 L 369 278.5 L 363 279 L 365.5 272 Z " /><path fill="#FFFFFF" stroke="rgb(255,255,255)" stroke-width="0" opacity="1" d="M 108 40 L 110 40.5 L 110 51.5 L 111 52.5 L 112 77.5 L 113 78.5 L 116 115.5 L 118 122.5 L 118 129.5 L 119 130.5 L 121 147.5 L 123 155 L 131.5 155 L 133 153.5 L 137 131.5 L 139 108.5 L 140 107.5 L 142 72.5 L 143.5 67 L 145 70.5 L 145 80.5 L 146 81.5 L 146 90.5 L 147 91.5 L 147 100.5 L 148 101.5 L 150 122.5 L 158 161 L 167 163 L 174 135.5 L 178 96 L 180 96.5 L 180 103.5 L 181 104.5 L 181 113.5 L 182 114.5 L 182 123.5 L 183 124.5 L 183 133.5 L 184 134.5 L 184 143.5 L 185 144.5 L 185 154.5 L 186 155.5 L 186 164.5 L 187 165.5 L 188 178.5 Q 158.8 189.8 141 212.5 Q 128.4 227.9 121 248.5 L 115 268.5 L 111 291.5 L 110 306.5 L 108.5 308 L 104 274.5 L 101 261.5 L 94 241.5 Q 82.5 214.5 61.5 197 Q 48.5 185.2 30 180 L 32 152.5 L 33 151.5 L 33 142.5 L 34 141.5 L 34 131.5 L 35 130.5 L 35 121.5 L 36 120.5 L 36 111.5 L 37 110.5 L 37 101.5 L 38.5 96 L 40 97.5 L 41 116.5 L 42 117.5 L 44 136.5 L 51 163 Q 56.8 163 60 159.5 L 69 114.5 L 71 89.5 L 72 88.5 L 72 78.5 L 73 77.5 L 73 68.5 L 74.5 67 L 78 110.5 L 79 111.5 L 81 132.5 L 85 155 L 93.5 155 L 95 153.5 L 99 134.5 L 101 113.5 L 102 112.5 L 108 40 Z " /><path fill="#FFFFFF" stroke="rgb(255,255,255)" stroke-width="0" opacity="1" d="M 221 130 L 269.5 130 L 271 131.5 L 290 178 Q 292.7 179.1 292 176.5 L 307 143.5 Q 305.4 136.6 299.5 134 L 296 133 L 296.5 130 L 350.5 130 Q 353.5 131.5 350.5 133 L 346 135.5 L 343 143.5 L 372 213.5 Q 377.5 225.5 386.5 234 L 389 235.5 L 388.5 237 L 328 237 Q 326.9 234.3 329.5 235 L 334 231.5 L 337 225.5 L 337 219.5 L 316.5 172 L 311 181.5 L 283 244 Q 279.3 245.5 280 242.5 L 249.5 172 L 230 212.5 L 230 220.5 Q 233 228 239.5 232 L 245 235 L 244.5 237 L 191 237 L 207 216.5 L 239 146.5 L 236 140 L 223.5 133 L 221 133 L 221 130 Z " /><path fill="#FFFFFF" stroke="rgb(255,255,255)" stroke-width="0" opacity="1" d="M 408.5 130 L 479.5 130 L 480 133 L 474 137.5 L 475 147.5 L 504 215.5 L 516 233 L 519 234.5 L 518.5 237 L 459 237 L 460.5 234 L 464 231.5 Q 468 228 467 219.5 L 436.5 148 L 430 159.5 L 417 190 L 448.5 190 L 450 191.5 Q 437 195.5 429 204.5 L 420 219.5 L 417 234.5 L 417 242 L 405 235 Q 406.1 232.3 403.5 233 L 389 215.5 L 386 210.5 L 386 206.5 L 416 140.5 L 409.5 133 L 407 131.5 L 408.5 130 Z " /><path fill="#FFFFFF" stroke="rgb(255,255,255)" stroke-width="0" opacity="1" d="M 569.5 130 L 621.5 130 L 622 133.5 L 606.5 165 L 604 163.5 L 604 160.5 L 596.5 150 L 585.5 144 L 575.5 144 Q 567.5 146.5 563 152.5 L 558 160.5 L 555 171.5 L 554 189.5 L 557 205.5 L 565.5 219 Q 571.4 225.1 583.5 225 L 588.5 224 L 592 221.5 L 592 194.5 L 586.5 188 L 579 185 L 579.5 183 L 629.5 183 L 631 184.5 L 631 260 Q 628 261.3 629 257.5 Q 625.6 246.9 617.5 241 Q 610.3 233.7 593.5 236 L 585.5 238 L 564.5 238 L 554.5 236 L 537.5 229 L 522 215.5 L 513 198.5 L 511 188.5 L 511 179.5 Q 515 156.5 530.5 145 Q 539.8 137.3 552.5 133 L 569.5 130 Z " /><path fill="#FFFFFF" stroke="rgb(255,255,255)" stroke-width="0" opacity="1" d="M 647 130 L 702.5 130 L 703 133 L 697 137.5 L 693 145.5 Q 694.3 150.3 692 151.5 L 692 216.5 L 696 228.5 L 703 237 L 647.5 237 L 647 235.5 L 651 233 L 657 222.5 L 658 217.5 L 658 149.5 L 654 138.5 L 647 130 Z " /><path fill="#FFFFFF" stroke="rgb(255,255,255)" stroke-width="0" opacity="1" d="M 769.5 130 L 822.5 130 L 823 132.5 L 806.5 166 L 801 154.5 L 794.5 148 Q 789.2 142.3 776.5 144 Q 768.8 146.3 764 151.5 Q 758.3 158.3 756 168.5 L 755 194.5 L 758 206.5 L 762 214.5 L 768.5 221 Q 774.1 225.4 784.5 225 L 800.5 221 L 812.5 215 L 830 203 Q 826 214.6 816.5 222 Q 805.3 232.3 788.5 237 L 783.5 238 L 764.5 238 Q 737.3 233.3 723 215.5 Q 716.2 207.8 713 196.5 L 712 191.5 L 712 176.5 L 715 166.5 L 725 150 L 728 148.5 Q 727.3 146.3 729.5 147 Q 736.9 139.4 747.5 135 L 769.5 130 Z " /><path fill="#FFFFFF" stroke="rgb(255,255,255)" stroke-width="0" opacity="1" d="M 365.5 260 L 368 261.5 L 380 289 L 370 288.5 L 371 285.5 L 369.5 284 L 361.5 284 L 360 287.5 L 360.5 289 L 351 288.5 L 365.5 260 Z M 366 272 L 363 279 L 369 279 L 366 272 Z " /><path fill="#FFFFFF" stroke="rgb(255,255,255)" stroke-width="0" opacity="1" d="M 548.5 260 L 565.5 276 L 566 264.5 L 564 261 L 573.5 261 L 574 262.5 L 573 263.5 L 573 288.5 L 571.5 290 L 568 287.5 Q 568.8 285.3 566.5 286 L 555.5 275 L 554 275 L 554 285.5 L 556 288.5 L 546 289 L 548 284.5 L 548.5 260 Z " /><path fill="#FFFFFF" stroke="rgb(255,255,255)" stroke-width="0" opacity="1" d="M 195.5 261 L 213.5 261 L 215 262.5 L 214.5 269 Q 213.1 265.8 208 267 L 208 286.5 L 210 288.5 L 199 289 L 201 285.5 L 201 267 Q 195.9 265.8 194.5 269 L 194 262.5 L 195.5 261 Z " /><path fill="#FFFFFF" stroke="rgb(255,255,255)" stroke-width="0" opacity="1" d="M 226 261 L 235.5 261 L 237 262.5 L 235 264.5 L 235 272 L 245 271 Q 245.9 264.2 243 261 L 253.5 261 L 254 262.5 L 252 264.5 L 252 286.5 L 253.5 289 L 243.5 289 L 243 287.5 Q 246.4 284.7 245 278 L 235 278 L 235 286.5 L 236.5 289 L 226.5 289 L 226 287.5 L 228 284.5 L 228 265.5 L 226 261 Z " /><path fill="#FFFFFF" stroke="rgb(255,255,255)" stroke-width="0" opacity="1" d="M 265 261 L 284 261 L 284 268.5 L 281.5 267 L 274 267 L 274 272 L 283 271 L 282.5 279 Q 280 275.8 274 277 L 274 283 L 279.5 283 L 281.5 283 L 285 282 L 284 289 L 265 288.5 L 267 285.5 L 267 264.5 L 265 261 Z " /><path fill="#FFFFFF" stroke="rgb(255,255,255)" stroke-width="0" opacity="1" d="M 326.5 261 L 340 261 L 340 268.5 L 338.5 268 L 331.5 266 L 326 268 L 324 271.5 L 324 278.5 L 328.5 284 Q 334.5 285.5 336 282.5 L 335 277 L 332 275.5 L 332.5 274 L 341.5 274 L 343 275.5 L 343 286.5 Q 338.6 291.1 328.5 290 L 319 284.5 Q 315.3 280.2 317 270.5 L 323.5 262 L 326.5 261 Z " /><path fill="#FFFFFF" stroke="rgb(255,255,255)" stroke-width="0" opacity="1" d="M 388.5 261 L 406.5 261 L 407 262.5 Q 409.3 263.8 408 268.5 L 405.5 267 Q 401 266.5 401 267.5 L 401 286.5 L 402.5 289 L 392.5 289 L 392 287.5 L 394 283.5 L 394 267 Q 389 265.8 387.5 269 L 387 262.5 L 388.5 261 Z " /><path fill="#FFFFFF" stroke="rgb(255,255,255)" stroke-width="0" opacity="1" d="M 419.5 261 L 428.5 261 L 429 262.5 Q 426 264.5 427 270.5 Q 428.8 273.8 435.5 272 Q 438.5 270.5 437 264.5 L 435 261 L 445.5 261 L 446 262.5 L 444 265.5 L 444 285.5 L 446 289 L 435 288.5 L 437 286.5 L 437 278 L 427 278 L 427 284.5 L 429 289 L 418 288.5 L 420 286.5 L 420 264.5 Q 416.3 262.8 419.5 261 Z " /><path fill="#FFFFFF" stroke="rgb(255,255,255)" stroke-width="0" opacity="1" d="M 458 261 L 475.5 261 L 477 262.5 Q 478.3 268.6 475.5 268 L 474.5 267 L 466 267 Q 465 270.8 467.5 272 Q 472.9 272.6 475 271 L 474.5 279 Q 473.3 275.8 467.5 277 Q 465.3 277.8 466 281.5 Q 467.8 284.8 474.5 283 L 477 281.5 L 477 289 L 457.5 289 L 459 286.5 Q 461.4 279.4 460 268.5 L 458 261 Z " /><path fill="#FFFFFF" stroke="rgb(255,255,255)" stroke-width="0" opacity="1" d="M 489 261 L 502.5 261 L 508.5 263 L 511 265.5 L 512 272.5 L 508 277.5 L 515 289 Q 507 290.8 505 285.5 L 498.5 275 L 498 285.5 L 500 289 L 489 288.5 L 491 286.5 L 491 264.5 L 489 261 Z M 498 267 L 498 274 L 504 273 L 505 270 Q 504 266 498 267 Z " /><path fill="#FFFFFF" stroke="rgb(255,255,255)" stroke-width="0" opacity="1" d="M 525 261 L 535.5 261 L 536 262.5 L 534 264.5 L 534 285.5 L 536 288.5 L 525.5 289 L 527 286.5 L 527 264.5 L 525 261 Z " /><path fill="#FFFFFF" stroke="rgb(255,255,255)" stroke-width="0" opacity="1" d="M 593.5 261 L 606.5 261 L 608 262.5 Q 609.5 269.5 606.5 269 L 604.5 267 L 598.5 266 L 592 270.5 L 591 277.5 L 594.5 283 L 601.5 284 Q 604 283 603 278.5 L 599 275.5 L 599.5 274 L 610 274 L 610 287.5 L 608.5 288 Q 603.9 290.9 595.5 290 L 587 286 L 584 279.5 L 584 271.5 L 588.5 264 L 593.5 261 Z " /></svg>