<svg id="svg" version="1.1" xmlns="http://www.w3.org/2000/svg" xmlns:xlink="http://www.w3.org/1999/xlink" width="400" height="72.88888888888889" viewBox="0, 0, 400,72.88888888888889"><g id="svgg"><path id="path0" d="M35.917 1.996 C 35.000 2.065,33.725 2.243,33.083 2.391 C 32.442 2.540,31.692 2.667,31.417 2.673 C 30.633 2.693,27.736 3.539,26.000 4.256 C 24.907 4.707,22.795 5.706,22.333 5.991 C 22.196 6.076,21.596 6.429,21.000 6.776 C 18.437 8.269,12.500 13.441,12.500 14.181 C 12.500 14.264,12.249 14.614,11.942 14.958 C 11.635 15.302,11.025 16.146,10.587 16.833 C 10.148 17.521,9.664 18.271,9.511 18.500 C 9.003 19.261,7.197 23.072,7.011 23.778 C 6.910 24.160,6.717 24.685,6.582 24.944 C 6.446 25.204,6.335 25.538,6.334 25.687 C 6.334 25.835,6.180 26.435,5.993 27.020 C 5.806 27.605,5.503 28.983,5.319 30.083 C 5.135 31.183,4.913 32.496,4.827 33.000 C 4.262 36.278,5.236 43.774,6.701 47.417 C 6.885 47.875,7.072 48.438,7.115 48.667 C 7.232 49.278,9.114 52.973,10.417 55.147 C 11.622 57.157,15.909 61.859,17.667 63.097 C 17.987 63.323,18.550 63.733,18.917 64.007 C 20.562 65.237,22.700 66.518,23.500 66.751 C 23.729 66.818,24.029 66.961,24.167 67.069 C 24.530 67.354,26.791 68.284,27.667 68.507 C 28.079 68.613,28.499 68.767,28.600 68.849 C 28.700 68.931,29.425 69.111,30.210 69.248 C 30.995 69.385,32.056 69.606,32.568 69.739 C 35.699 70.555,44.470 69.976,47.360 68.764 C 47.695 68.623,48.331 68.427,48.774 68.328 C 49.216 68.229,49.692 68.049,49.831 67.928 C 49.970 67.808,50.383 67.615,50.750 67.500 C 51.117 67.385,51.534 67.189,51.677 67.064 C 51.821 66.940,52.193 66.749,52.503 66.641 C 52.814 66.532,53.312 66.288,53.611 66.097 C 53.909 65.906,54.512 65.530,54.952 65.260 C 58.930 62.820,63.746 58.000,65.668 54.536 C 65.806 54.287,66.082 53.821,66.280 53.500 C 66.902 52.497,68.494 49.262,68.497 48.998 C 68.499 48.859,68.639 48.484,68.809 48.164 C 68.979 47.845,69.211 47.171,69.325 46.667 C 69.439 46.163,69.713 45.165,69.933 44.450 C 70.153 43.735,70.333 42.835,70.334 42.450 C 70.334 42.065,70.447 41.188,70.585 40.500 C 70.926 38.805,71.081 34.681,70.851 33.417 C 70.751 32.867,70.588 31.742,70.489 30.917 C 70.017 26.980,67.862 20.892,65.877 17.887 C 63.544 14.354,61.358 11.840,58.581 9.493 C 57.328 8.434,55.581 7.167,55.374 7.167 C 55.323 7.167,55.049 6.994,54.766 6.782 C 52.887 5.383,46.888 3.027,44.268 2.659 C 43.617 2.568,42.521 2.388,41.833 2.260 C 40.139 1.944,37.924 1.846,35.917 1.996 M326.500 5.495 C 325.721 5.571,324.617 5.791,324.047 5.984 C 323.477 6.176,322.855 6.333,322.665 6.333 C 322.475 6.333,322.041 6.476,321.701 6.649 C 321.360 6.823,320.752 7.054,320.350 7.162 C 319.947 7.271,319.423 7.493,319.184 7.657 C 318.945 7.821,317.977 8.467,317.032 9.092 C 315.148 10.338,312.885 12.560,311.767 14.261 C 311.409 14.805,310.987 15.441,310.829 15.674 C 310.671 15.907,310.394 16.394,310.213 16.757 C 310.033 17.120,309.772 17.642,309.633 17.917 C 308.704 19.752,307.500 23.081,307.500 23.812 C 307.500 23.991,307.351 24.612,307.169 25.193 C 306.987 25.775,306.764 27.037,306.673 28.000 C 305.983 35.310,305.979 35.378,306.158 37.667 C 306.255 38.904,306.414 40.967,306.511 42.250 C 306.760 45.542,307.864 50.187,308.930 52.433 C 309.152 52.901,309.333 53.334,309.333 53.396 C 309.333 53.606,310.515 55.911,310.924 56.500 C 312.171 58.294,312.777 59.069,313.563 59.874 C 316.369 62.748,320.611 65.113,324.083 65.739 C 324.817 65.871,325.979 66.103,326.667 66.254 C 328.084 66.566,334.453 66.527,335.455 66.200 C 335.752 66.104,336.727 65.901,337.622 65.750 C 338.517 65.599,339.400 65.380,339.583 65.263 C 339.767 65.146,340.217 64.955,340.583 64.838 C 340.950 64.720,341.363 64.540,341.500 64.437 C 341.637 64.334,342.269 63.987,342.904 63.667 C 344.620 62.799,347.318 60.128,348.615 58.012 C 349.512 56.551,351.164 52.914,351.170 52.389 C 351.172 52.221,351.331 51.746,351.523 51.333 C 351.715 50.921,352.006 50.077,352.170 49.458 L 352.467 48.332 352.035 47.992 C 351.620 47.666,351.419 47.654,347.121 47.701 C 342.034 47.757,342.167 47.718,342.167 49.137 C 342.167 51.936,339.213 57.031,337.219 57.671 C 336.869 57.784,336.471 57.969,336.333 58.083 C 334.797 59.358,328.174 59.474,326.333 58.257 C 326.012 58.045,325.555 57.827,325.317 57.772 C 324.080 57.488,321.279 53.820,320.911 52.000 C 320.846 51.679,320.653 51.141,320.483 50.804 C 320.312 50.467,320.124 49.755,320.064 49.221 C 320.005 48.687,319.815 47.688,319.643 47.000 C 318.935 44.176,318.892 25.339,319.588 22.895 C 319.722 22.424,319.913 21.449,320.013 20.728 C 320.112 20.007,320.330 19.192,320.496 18.917 C 320.662 18.642,320.851 18.154,320.917 17.833 C 320.982 17.512,321.171 17.100,321.335 16.917 C 321.500 16.733,321.745 16.321,321.879 16.000 C 323.370 12.442,330.594 10.365,335.219 12.164 C 339.195 13.711,341.500 18.423,341.500 25.007 C 341.500 27.201,341.519 27.208,347.266 27.135 C 350.366 27.095,351.346 27.031,351.558 26.855 C 351.922 26.552,351.987 7.619,351.625 7.385 C 351.272 7.156,346.368 7.112,345.835 7.332 C 345.341 7.537,345.095 7.996,344.924 9.029 C 344.694 10.421,343.385 10.965,342.314 10.114 C 342.062 9.914,341.583 9.563,341.250 9.333 C 340.917 9.104,340.443 8.757,340.197 8.562 C 337.135 6.134,331.906 4.963,326.500 5.495 M202.984 7.164 C 191.333 7.265,192.500 7.008,192.500 9.470 C 192.500 11.642,192.821 12.165,194.156 12.169 C 196.611 12.175,198.760 13.558,199.326 15.495 C 199.734 16.893,199.706 16.092,199.685 25.945 L 199.667 34.474 198.956 35.195 C 196.754 37.431,195.183 39.990,194.667 42.182 C 194.551 42.678,194.361 43.271,194.245 43.500 C 193.958 44.070,193.772 48.632,193.980 50.000 C 194.370 52.566,195.815 55.619,197.451 57.333 C 198.303 58.226,198.318 58.343,197.660 58.897 C 197.130 59.343,194.944 60.088,194.667 59.917 C 194.434 59.773,193.256 60.124,192.837 60.463 C 192.510 60.728,192.474 60.928,192.447 62.628 L 192.417 64.502 192.942 64.751 C 193.391 64.964,195.003 65.000,204.044 65.000 C 216.744 65.000,215.500 65.270,215.500 62.517 C 215.500 60.410,215.269 60.002,214.073 59.997 C 211.685 59.987,209.607 58.839,208.643 57.000 L 208.250 56.250 208.200 46.917 C 208.173 41.783,208.195 37.340,208.250 37.042 C 208.347 36.509,208.667 36.275,208.667 36.736 C 208.667 36.866,208.846 37.035,209.065 37.111 C 209.284 37.188,209.903 37.636,210.440 38.108 C 213.723 40.993,212.956 40.721,217.536 40.629 C 224.072 40.499,228.928 38.291,231.570 34.250 C 231.930 33.700,232.361 33.047,232.529 32.798 C 232.696 32.550,232.833 32.298,232.833 32.239 C 232.833 32.180,233.020 31.761,233.247 31.308 C 235.100 27.618,235.264 19.320,233.546 16.083 C 233.401 15.808,233.137 15.293,232.960 14.938 C 232.360 13.730,229.751 10.667,229.323 10.667 C 229.262 10.667,228.921 10.431,228.565 10.143 C 227.827 9.547,225.491 8.413,224.250 8.049 C 223.792 7.915,223.263 7.707,223.074 7.587 C 222.560 7.259,219.057 6.995,215.805 7.039 C 214.216 7.061,208.447 7.117,202.984 7.164 M72.809 7.355 C 72.256 7.557,72.172 7.876,72.169 9.780 C 72.167 11.419,72.416 11.883,73.402 12.075 C 73.593 12.112,74.212 12.232,74.777 12.341 C 77.527 12.872,79.301 15.187,80.081 19.262 C 80.370 20.774,80.459 55.006,80.177 56.221 C 79.682 58.355,77.986 59.553,74.859 59.977 C 73.068 60.221,73.000 60.316,73.000 62.589 C 73.000 64.125,73.049 64.500,73.276 64.688 C 73.670 65.016,95.526 65.121,95.794 64.796 C 95.890 64.679,95.995 63.710,96.026 62.643 C 96.098 60.216,95.971 60.000,94.480 60.000 C 92.558 60.000,90.580 58.950,89.534 57.376 L 88.917 56.446 88.833 40.015 C 88.737 20.951,88.639 21.938,90.370 24.439 C 91.701 26.362,91.692 26.350,92.497 27.367 C 93.399 28.507,94.192 29.576,96.000 32.093 C 96.504 32.795,97.029 33.494,97.167 33.647 C 97.304 33.799,97.978 34.673,98.664 35.587 C 99.349 36.502,99.950 37.287,99.998 37.333 C 100.046 37.379,100.347 37.777,100.668 38.217 C 100.988 38.658,101.475 39.309,101.750 39.666 C 102.025 40.022,102.438 40.588,102.667 40.924 C 102.896 41.259,103.199 41.660,103.339 41.815 C 103.480 41.969,103.930 42.580,104.339 43.173 C 104.749 43.765,105.611 44.925,106.255 45.750 C 106.899 46.575,107.558 47.438,107.719 47.667 C 108.862 49.296,109.268 49.847,109.667 50.313 C 110.275 51.023,110.964 51.950,111.167 52.332 C 111.358 52.691,112.060 53.607,113.339 55.167 C 113.527 55.396,114.297 56.425,115.049 57.455 C 115.801 58.484,117.354 60.579,118.500 62.112 C 119.646 63.644,120.713 65.186,120.871 65.538 C 121.145 66.150,122.047 66.760,122.376 66.557 C 122.447 66.513,122.506 55.213,122.507 41.447 C 122.508 27.680,122.568 16.116,122.641 15.748 C 123.006 13.914,124.575 12.692,127.139 12.245 C 129.194 11.887,129.252 11.808,129.194 9.459 C 129.156 7.959,129.093 7.542,128.875 7.375 C 128.422 7.028,108.036 7.077,107.537 7.426 C 107.193 7.667,107.167 7.814,107.167 9.485 C 107.167 11.827,107.340 12.063,109.170 12.216 C 110.726 12.347,112.247 13.073,113.072 14.081 C 114.198 15.454,114.210 15.605,114.194 27.667 C 114.186 33.579,114.242 38.867,114.318 39.417 C 114.493 40.678,114.449 40.780,113.763 40.700 C 113.300 40.646,113.152 40.523,112.912 39.989 C 112.752 39.634,112.481 39.217,112.310 39.062 C 112.140 38.908,112.000 38.718,112.000 38.640 C 112.000 38.499,110.799 36.855,109.504 35.224 C 109.129 34.751,108.505 33.887,108.119 33.303 C 107.409 32.228,105.514 29.654,105.321 29.500 C 105.264 29.454,105.118 29.230,104.998 29.002 C 104.878 28.774,104.433 28.136,104.011 27.585 C 103.588 27.034,103.115 26.396,102.959 26.167 C 102.803 25.938,102.259 25.188,101.749 24.500 C 101.240 23.813,100.638 22.988,100.412 22.667 C 99.470 21.329,98.429 19.888,97.824 19.083 C 97.548 18.717,97.140 18.154,96.917 17.833 C 96.694 17.512,96.287 16.950,96.013 16.583 C 93.890 13.744,91.832 10.281,91.396 8.815 C 91.270 8.392,90.970 7.848,90.728 7.606 L 90.288 7.167 81.769 7.180 C 76.717 7.188,73.071 7.259,72.809 7.355 M133.213 7.284 C 132.720 7.379,132.502 8.198,132.501 9.958 C 132.500 11.600,132.713 11.915,133.946 12.090 C 137.550 12.599,139.183 13.651,139.679 15.785 C 139.903 16.752,139.874 55.764,139.648 56.578 C 139.131 58.441,136.971 59.792,134.083 60.059 C 132.611 60.194,132.492 60.401,132.564 62.692 C 132.599 63.805,132.699 64.599,132.819 64.719 C 133.086 64.986,169.615 65.104,170.522 64.841 C 170.926 64.724,171.162 64.540,171.229 64.291 C 171.422 63.567,171.344 55.547,171.138 55.053 C 171.025 54.781,170.922 53.470,170.894 51.942 C 170.834 48.645,170.981 48.833,168.469 48.833 C 165.667 48.833,165.824 48.660,165.516 52.092 C 165.329 54.173,163.871 57.667,163.189 57.667 C 163.120 57.667,162.911 57.809,162.725 57.982 C 161.373 59.241,159.161 59.824,155.722 59.830 C 151.598 59.837,149.253 58.556,148.514 55.894 C 148.217 54.824,148.279 38.502,148.582 38.102 C 148.925 37.649,156.850 37.621,157.917 38.069 C 160.060 38.969,161.121 40.620,161.157 43.112 C 161.164 43.607,161.291 43.955,161.598 44.321 L 162.030 44.833 163.928 44.833 C 166.590 44.833,166.332 45.941,166.287 34.711 C 166.244 23.836,166.497 24.941,164.036 24.870 C 161.532 24.799,161.475 24.839,161.198 26.837 C 160.856 29.310,160.051 30.623,158.372 31.448 L 157.417 31.917 153.139 31.975 L 148.862 32.032 148.592 31.619 C 148.350 31.250,148.326 30.376,148.369 23.395 L 148.417 15.583 148.897 14.635 C 150.006 12.448,151.731 11.773,156.250 11.759 C 162.529 11.741,165.070 13.915,165.567 19.729 C 165.830 22.796,165.866 22.833,168.568 22.833 C 170.336 22.833,170.478 22.808,170.892 22.425 L 171.333 22.016 171.331 14.966 C 171.328 7.692,171.327 7.678,170.719 7.358 C 170.367 7.173,134.157 7.101,133.213 7.284 M236.675 7.406 C 236.555 7.551,236.460 8.357,236.435 9.448 C 236.385 11.604,236.589 12.167,237.422 12.167 C 239.926 12.167,242.060 13.333,243.064 15.249 L 243.500 16.081 243.498 35.915 L 243.497 55.750 243.072 56.667 C 242.223 58.497,241.002 59.317,238.482 59.751 C 237.621 59.899,236.804 60.131,236.667 60.266 C 236.373 60.555,236.403 64.429,236.702 64.792 C 236.985 65.134,258.175 65.090,258.842 64.746 L 259.333 64.491 259.333 62.571 C 259.333 60.315,259.080 59.836,257.883 59.831 C 256.436 59.825,254.503 59.118,253.702 58.302 C 253.085 57.672,252.614 56.924,252.487 56.371 C 252.304 55.575,252.296 16.645,252.478 15.726 C 252.805 14.078,254.767 12.643,257.173 12.292 C 259.113 12.009,259.333 11.723,259.333 9.487 C 259.333 6.903,260.649 7.167,247.770 7.167 C 238.498 7.167,236.845 7.202,236.675 7.406 M264.000 7.281 C 263.445 7.482,263.333 7.887,263.333 9.695 C 263.333 11.872,263.312 11.849,265.750 12.251 C 268.551 12.713,269.925 13.813,270.481 16.037 C 270.980 18.030,270.980 54.733,270.481 56.333 C 269.841 58.386,268.036 59.667,265.402 59.937 C 264.822 59.996,264.120 60.183,263.841 60.353 L 263.333 60.662 263.333 62.560 C 263.333 64.123,263.382 64.500,263.609 64.688 C 264.004 65.016,301.029 65.111,301.667 64.786 L 302.083 64.574 302.129 56.995 C 302.183 47.902,302.500 48.833,299.347 48.833 C 296.589 48.833,296.625 48.807,296.478 50.942 C 296.049 57.152,293.109 59.832,286.726 59.833 C 282.839 59.834,280.871 59.020,279.666 56.915 L 279.188 56.080 279.154 47.243 C 279.125 39.995,279.160 38.339,279.348 38.038 C 279.721 37.441,287.734 37.614,289.043 38.247 C 290.789 39.092,291.403 39.983,291.813 42.263 C 292.283 44.879,292.308 44.900,294.917 44.854 C 297.221 44.813,297.000 45.889,297.000 34.724 C 297.000 23.603,297.300 24.833,294.587 24.833 C 292.273 24.833,292.146 24.942,291.843 27.172 C 291.726 28.040,291.551 28.900,291.455 29.083 C 291.006 29.945,290.027 30.901,289.094 31.387 L 288.083 31.915 283.801 31.916 C 280.685 31.916,279.463 31.862,279.317 31.716 C 278.932 31.333,279.079 15.534,279.472 15.003 C 279.645 14.768,279.836 14.420,279.897 14.228 C 280.783 11.438,289.906 10.656,293.131 13.094 C 295.123 14.599,296.175 16.933,296.429 20.406 C 296.605 22.812,296.689 22.874,299.571 22.742 C 301.299 22.663,301.793 22.587,301.958 22.373 C 302.284 21.951,302.257 8.021,301.930 7.574 C 301.699 7.258,264.850 6.974,264.000 7.281 M356.042 7.339 C 355.682 7.483,355.667 7.571,355.667 9.483 C 355.667 11.754,355.736 11.904,356.872 12.080 C 359.431 12.478,359.699 12.555,360.626 13.154 C 361.629 13.804,362.381 14.722,362.693 15.681 C 362.936 16.427,363.027 30.826,362.790 31.125 C 362.524 31.463,362.028 31.365,361.734 30.916 C 361.389 30.389,358.959 29.583,358.128 29.719 C 356.036 30.062,354.571 31.234,353.641 33.307 C 351.649 37.746,357.795 42.345,361.577 39.246 C 362.345 38.617,362.778 38.610,362.916 39.227 C 363.112 40.095,362.898 55.922,362.682 56.578 C 362.064 58.455,360.228 59.636,357.352 60.006 C 355.614 60.229,355.649 60.175,355.704 62.642 C 355.750 64.716,355.754 64.737,356.167 64.851 C 356.990 65.080,393.710 65.015,394.167 64.784 L 394.583 64.574 394.630 57.162 C 394.688 47.780,395.050 48.799,391.672 48.825 C 388.649 48.849,388.731 48.785,388.631 51.198 C 388.438 55.875,386.052 58.945,382.114 59.584 C 377.377 60.352,373.816 59.550,372.174 57.345 L 371.500 56.440 371.500 47.959 C 371.500 42.432,371.560 39.366,371.673 39.156 C 371.925 38.684,380.896 38.657,381.833 39.125 C 382.676 39.547,382.914 40.136,382.605 41.044 C 382.472 41.438,382.309 42.058,382.243 42.422 C 382.178 42.786,382.030 43.196,381.916 43.333 C 381.801 43.471,381.574 43.846,381.412 44.167 C 381.250 44.487,380.777 45.150,380.360 45.639 C 379.208 46.991,379.977 47.615,381.509 46.570 C 381.835 46.348,382.224 46.167,382.374 46.167 C 382.524 46.167,382.692 46.093,382.748 46.004 C 382.803 45.915,383.261 45.567,383.766 45.232 C 385.802 43.880,387.170 41.899,388.113 38.936 C 388.537 37.602,388.687 37.350,389.625 36.393 C 390.819 35.175,390.831 35.139,390.192 34.725 C 389.341 34.173,388.716 33.276,388.174 31.833 C 386.524 27.441,384.889 25.714,380.583 23.815 C 380.308 23.693,380.027 23.567,379.958 23.533 C 379.658 23.387,379.865 24.520,380.208 24.905 C 380.415 25.137,380.705 25.468,380.854 25.642 C 381.304 26.168,382.118 28.003,382.515 29.386 L 382.889 30.689 382.275 31.303 L 381.661 31.917 376.836 31.953 C 372.042 31.988,372.009 31.986,371.755 31.624 C 371.535 31.309,371.500 30.184,371.500 23.340 L 371.500 15.421 371.955 14.523 C 373.023 12.411,374.765 11.749,379.250 11.752 C 385.620 11.755,388.373 14.193,388.628 20.057 C 388.750 22.860,388.868 22.948,392.260 22.753 C 394.056 22.649,394.363 22.590,394.508 22.318 C 394.807 21.760,394.640 7.524,394.333 7.330 C 394.006 7.123,356.556 7.132,356.042 7.339 M215.679 12.341 C 219.466 12.953,221.496 14.158,223.467 16.964 C 223.814 17.457,224.166 18.518,224.696 20.667 C 225.002 21.905,224.935 26.066,224.590 27.333 C 224.427 27.929,224.208 28.792,224.104 29.250 C 223.365 32.478,220.074 35.171,216.250 35.676 C 213.295 36.066,212.832 36.094,210.702 36.007 C 208.024 35.898,208.173 36.056,208.169 33.309 L 208.167 31.201 208.730 30.726 C 209.040 30.464,209.689 30.025,210.171 29.750 C 211.986 28.716,213.906 26.282,214.342 24.463 C 214.458 23.979,214.653 23.342,214.776 23.047 C 215.164 22.118,215.061 19.610,214.581 18.250 C 214.354 17.608,214.168 16.988,214.167 16.871 C 214.165 16.315,212.054 13.623,211.323 13.245 C 210.904 13.028,210.569 12.153,210.812 11.910 C 210.953 11.769,213.579 12.001,215.679 12.341 M39.857 12.342 C 44.437 12.808,50.833 15.389,50.833 16.771 C 50.833 17.147,39.281 28.893,38.239 29.575 C 37.681 29.941,37.570 29.855,34.232 26.471 C 32.755 24.975,31.293 23.515,30.982 23.227 C 30.671 22.939,29.514 21.776,28.411 20.643 C 27.308 19.510,26.095 18.308,25.716 17.971 C 25.102 17.425,24.919 17.033,24.982 16.394 C 24.998 16.225,26.880 15.000,27.124 15.000 C 27.179 15.000,27.342 14.899,27.487 14.775 C 28.235 14.137,32.405 12.772,34.417 12.507 C 35.611 12.350,36.202 12.294,37.691 12.196 C 37.933 12.180,38.908 12.246,39.857 12.342 M209.059 14.500 C 209.416 14.500,211.372 16.971,211.796 17.956 C 212.443 19.462,212.510 22.005,211.945 23.621 C 211.276 25.530,209.550 27.568,208.685 27.467 L 208.250 27.417 208.206 21.084 C 208.161 14.460,208.174 14.236,208.598 14.399 C 208.743 14.455,208.950 14.500,209.059 14.500 M25.096 29.313 C 32.551 36.759,31.762 35.864,31.390 36.444 C 31.223 36.704,30.810 37.179,30.473 37.500 C 30.135 37.821,29.535 38.393,29.138 38.772 C 28.741 39.151,26.326 41.570,23.770 44.147 C 18.239 49.724,18.516 49.578,17.515 47.458 C 16.322 44.933,15.710 43.199,15.117 40.667 C 14.750 39.103,14.886 32.244,15.314 30.750 C 15.523 30.017,15.800 28.989,15.927 28.466 C 16.377 26.623,18.122 23.333,18.650 23.333 C 19.030 23.333,20.133 24.357,25.096 29.313 M57.754 23.952 C 57.896 24.293,58.120 24.690,58.252 24.836 C 58.384 24.981,58.608 25.430,58.750 25.833 C 58.892 26.237,59.110 26.683,59.233 26.825 C 59.357 26.967,59.511 27.381,59.577 27.744 C 59.642 28.108,59.811 28.628,59.952 28.901 C 60.861 30.659,61.178 36.937,60.543 40.583 C 59.929 44.105,58.006 48.697,57.100 48.804 C 56.403 48.886,43.888 36.307,44.223 35.861 C 44.268 35.800,47.068 32.966,50.445 29.563 C 57.183 22.772,57.242 22.727,57.754 23.952 M359.776 33.536 C 361.638 35.415,359.499 38.054,357.378 36.494 C 356.324 35.719,356.240 34.752,357.144 33.774 C 357.951 32.901,359.047 32.802,359.776 33.536 M199.829 39.072 C 199.922 39.316,199.923 39.686,199.833 40.000 C 199.723 40.385,199.617 50.520,199.680 54.727 C 199.691 55.497,198.647 55.228,198.283 54.367 C 198.140 54.027,197.909 53.563,197.770 53.333 C 196.384 51.048,195.967 45.380,197.011 43.020 C 197.188 42.619,197.335 42.207,197.336 42.104 C 197.345 41.590,198.644 39.288,199.092 38.993 C 199.698 38.593,199.645 38.587,199.829 39.072 M38.136 42.484 C 38.923 42.906,50.833 55.017,50.833 55.395 C 50.833 55.821,50.051 56.529,49.240 56.837 C 48.992 56.931,48.593 57.149,48.352 57.320 C 48.111 57.492,47.599 57.717,47.214 57.821 C 46.829 57.924,46.472 58.077,46.420 58.161 C 46.252 58.433,42.787 59.455,41.250 59.685 C 37.135 60.302,31.974 59.557,28.500 57.844 C 24.190 55.718,24.171 55.680,26.358 53.556 C 27.097 52.837,29.926 50.019,32.644 47.292 C 35.363 44.565,37.647 42.333,37.721 42.333 C 37.795 42.333,37.982 42.401,38.136 42.484 " stroke="none" fill="#000000" fill-rule="evenodd"></path></g></svg>