<svg viewBox="0 0 651 270" version="1.1" xmlns="http://www.w3.org/2000/svg" desc="Created with imagetracer.js version 1.2.6" ><path fill="none" stroke="none" stroke-width="0" opacity="1" d="M 0 0 L 651 0 L 651 270 L 0 270 L 0 0 Z M 393 57 L 391 60 Q 385 68 374 72 L 344 74 L 346 74 L 357 86 L 359 90 L 359 113 L 351 120 L 346 120 L 341 114 L 334 107 L 327 107 L 327 106 L 343 90 L 343 88 L 320 65 L 313 73 L 303 66 Q 294 68 290 74 L 274 62 L 269 65 Q 247 82 238 113 L 229 120 L 217 120 L 217 106 L 191 106 L 190 107 L 187 106 L 165 106 L 177 89 Q 181 79 195 82 L 191 73 L 182 65 L 156 65 L 152 67 L 142 78 Q 143 80 140 79 L 133 68 L 127 65 L 93 65 L 89 67 L 79 81 L 79 82 L 84 81 L 94 82 L 123 124 L 123 160 L 122 161 L 111 161 L 111 165 L 115 172 L 124 178 L 152 178 L 158 175 L 162 170 L 176 179 Q 181 181 183 178 L 214 178 L 218 176 L 229 162 L 217 161 L 217 143 L 243 143 Q 253 164 271 179 Q 281 177 287 171 L 307 184 L 308 184 L 308 178 L 333 178 L 337 176 L 347 162 L 336 161 L 336 143 L 358 143 L 364 153 L 386 175 L 393 185 Q 400 171 412 161 L 421 174 L 428 178 L 455 178 L 456 159 Q 462 175 474 185 Q 488 178 498 166 L 515 182 L 537 160 L 521 144 Q 520 141 523 142 L 531 107 L 536 93 Q 537 90 535 91 L 531 94 L 534 84 L 544 65 L 481 66 L 491 83 L 496 100 L 498 110 L 498 117 L 499 118 L 498 138 L 485 143 L 485 116 L 492 103 L 492 101 L 458 115 L 457 62 L 438 73 L 412 72 L 404 69 L 393 57 Z M 533 172 L 529 176 L 530 183 Q 532 186 539 185 L 543 180 L 542 175 Q 540 171 533 172 Z M 343 174 L 341 176 L 343 176 L 343 174 Z " /><path fill="none" stroke="none" stroke-width="0" opacity="1" d="M 392.5 67 L 404.5 76 Q 413.7 79.3 427 78.5 L 422 82 L 420 85.5 L 420 114.5 L 426 121.5 L 420 122 L 421 124.5 L 421 137 L 423 137.5 L 419 145.5 L 397 167.5 L 392.5 174 Q 380.9 157.1 365 144.5 L 362 137 L 364 136.5 L 364 122 L 358 121.5 L 365 113.5 L 365 86.5 L 359.5 80 Q 356.9 80.7 358 78 L 377.5 77 Q 387 74 392.5 67 Z M 393 83 L 387 86 L 384 86 L 384 88 L 384 116 L 382 118 L 384 121 L 384 145 L 393 155 L 400 146 L 400 121 L 402 119 L 400 115 L 400 88 L 401 87 Q 395 87 393 83 Z " /><path fill="none" stroke="none" stroke-width="0" opacity="1" d="M 273.5 69 L 291 82 L 296.5 75 Q 297.9 72.4 302.5 73 L 309 78.5 Q 309.8 80.8 307.5 80 L 300 85.5 L 297 92.5 L 296.5 105 L 273.5 86 Q 266.2 94.2 263 106.5 L 262 121.5 L 266 137.5 L 276.5 154 Q 282.1 153.6 284 149.5 L 283.5 125 Q 276.1 127.1 272 132.5 L 271.5 134 L 271 130.5 Q 274.6 121.1 282.5 116 Q 289.4 110.4 303.5 112 L 303 113.5 L 302 115.5 L 302 173 L 287.5 164 L 285.5 164 L 276.5 171 L 271.5 172 Q 259 160.5 250 145.5 L 245 134.5 L 243 122 L 237 121.5 L 243 115.5 L 247 102.5 L 252 93.5 Q 259.5 80.5 270.5 71 L 273.5 69 Z " /><path fill="none" stroke="none" stroke-width="0" opacity="1" d="M 93.5 71 L 126.5 71 L 131 75.5 Q 131.6 78.3 125.5 77 L 124 80.5 L 143.5 108 L 158 87.5 L 161 79.5 L 160 77 L 151.5 77 L 151 75.5 L 156.5 71 L 180.5 71 L 185 74.5 L 186 76.5 L 180.5 77 L 171 86.5 L 148 119.5 L 148 162.5 L 150.5 166 L 156 167.5 L 151.5 172 L 124.5 172 L 121 170 L 120 167.5 L 127 164.5 L 128 162.5 L 128 120.5 L 105 85.5 L 96.5 77 L 89.5 77 L 89 75.5 L 93.5 71 Z " /><path fill="none" stroke="none" stroke-width="0" opacity="1" d="M 492 71 L 534 71.5 Q 524.2 86.2 522 108.5 L 525 107.5 L 522 116.5 L 518 138 L 509 141 L 509 130.5 L 507 130 L 504.5 134 L 504 131.5 L 505 130.5 L 505 118.5 L 500 91.5 L 492 71 Z " /><path fill="none" stroke="none" stroke-width="0" opacity="1" d="M 448.5 73 L 451 73.5 L 451 124.5 L 454.5 122 L 479.5 111 L 480 113.5 L 479 114.5 L 479 150.5 L 483.5 159 L 490 151 L 485 150.5 Q 492 145 503.5 144 L 503 145.5 Q 496.7 162.2 483.5 172 L 474.5 178 L 462 159.5 L 460 152.5 L 459.5 133 L 449 139.5 L 449 170.5 L 450 171.5 L 428.5 172 L 424.5 167 Q 429 168 430 165.5 L 430 92.5 L 426 86.5 L 448.5 73 Z " /><path fill="none" stroke="none" stroke-width="0" opacity="1" d="M 319.5 74 L 335 88.5 L 320.5 103 L 306 88.5 L 319.5 74 Z " /><path fill="none" stroke="none" stroke-width="0" opacity="1" d="M 133 82 L 152.5 82 L 153 83.5 L 143.5 98 L 133 82 Z " /><path fill="none" stroke="none" stroke-width="0" opacity="1" d="M 391.5 90 L 394 91.5 L 394 116.5 L 395 118.5 L 394 119.5 L 394 143.5 L 392.5 145 Q 390.3 145.8 391 143.5 L 390 142.5 L 390 118.5 L 389 117.5 L 390 116.5 L 390 91.5 L 391.5 90 Z " /><path fill="none" stroke="none" stroke-width="0" opacity="1" d="M 303.5 94 L 314.5 106 L 303 106 L 303.5 94 Z " /><path fill="none" stroke="none" stroke-width="0" opacity="1" d="M 274 95 L 289 106.5 Q 277.8 110.3 271 118.5 L 268.5 122 L 268 111.5 L 274 95 Z " /><path fill="none" stroke="none" stroke-width="0" opacity="1" d="M 160.5 112 L 181 112 L 181 159.5 L 182.5 160 L 191 155.5 L 192 153.5 L 192 119.5 Q 190.6 116.8 186 118 L 189.5 113 L 191.5 112 L 211 112 L 211 165.5 L 212.5 166 L 217 167.5 L 214.5 171 L 212.5 172 L 192 172 L 191.5 167 L 182.5 173 L 176.5 173 Q 167.1 169.4 162 161.5 L 162 119.5 L 160.5 118 L 155 117.5 L 158.5 113 L 160.5 112 Z " /><path fill="none" stroke="none" stroke-width="0" opacity="1" d="M 312.5 112 L 329.5 112 L 336 116.5 Q 336.9 119.9 331.5 118 L 330 119.5 L 330 165.5 Q 331.4 168.1 336 167.5 L 331.5 172 L 311 172 L 311 119.5 L 308.5 117 L 307 116.5 L 312.5 112 Z " /><path fill="none" stroke="none" stroke-width="0" opacity="1" d="M 154 124 L 156 124.5 L 156 159.5 L 154 160.5 L 154 124 Z " /><path fill="none" stroke="none" stroke-width="0" opacity="1" d="M 216 126 L 239.5 126 L 240 127.5 L 236 133.5 L 237 137 L 216 137 L 216 126 Z " /><path fill="none" stroke="none" stroke-width="0" opacity="1" d="M 335 126 L 359 126.5 L 355 134.5 L 356 137 L 335 137 L 335 126 Z " /><path fill="none" stroke="none" stroke-width="0" opacity="1" d="M 277.5 136 L 278 144.5 L 276 143.5 L 274 139.5 L 277.5 136 Z " /><path fill="none" stroke="none" stroke-width="0" opacity="1" d="M 514.5 145 L 528 158.5 L 528 160.5 L 513.5 174 L 500 159.5 L 510 149.5 L 510 148 L 514.5 145 Z " /><path fill="none" stroke="none" stroke-width="0" opacity="1" d="M 423.5 149 L 424 161 L 413.5 161 L 413 159 L 415 159 L 415 157 Q 417.7 158.1 417 155.5 L 423.5 149 Z " /><path fill="none" stroke="none" stroke-width="0" opacity="1" d="M 534.5 173 Q 539.3 172.3 540 175.5 L 541 179.5 L 538.5 183 L 534.5 184 Q 529.8 182.7 531 175.5 L 534.5 173 Z M 533 175 Q 531 180 535 182 L 536 179 L 539 181 L 538 179 L 539 177 Q 538 174 533 175 Z " /><path fill="#FFFFFF" stroke="#FFFFFF" stroke-width="0" opacity="1" d="M 392.5 57 L 403.5 69 L 411.5 72 L 437.5 73 L 456.5 62 L 457.5 115 L 491.5 101 L 492 102.5 L 485 115.5 L 485 143 L 498 137.5 L 499 117.5 L 498 116.5 L 498 109.5 L 496 99.5 L 491 82.5 L 481 65.5 L 544 65 L 534 83.5 L 531 93.5 L 534.5 91 Q 536.8 90.3 536 92.5 L 531 106.5 L 523 142 Q 520.3 140.9 521 143.5 L 537 159.5 L 514.5 182 L 497.5 166 Q 488.3 178.3 473.5 185 Q 461.8 174.7 455.5 159 L 455 178 L 427.5 178 L 421 173.5 L 411.5 161 Q 399.5 170.5 392.5 185 L 386 174.5 L 364 152.5 L 357.5 143 L 336 143 L 336 161 L 347 161.5 L 336.5 176 L 332.5 178 L 308 178 L 308 183.5 L 306.5 184 L 286.5 171 Q 280.5 177 270.5 179 Q 253 164.3 243 143 L 217 143 L 217 161 L 229 161.5 L 217.5 176 L 213.5 178 L 182.5 178 Q 181 180.5 175.5 179 L 161.5 170 L 157.5 175 L 151.5 178 L 123.5 178 L 115 171.5 L 111 164.5 L 111 161 L 121.5 161 L 123 159.5 L 123 123.5 L 93.5 82 L 83.5 81 L 78.5 82 L 79 80.5 L 88.5 67 L 92.5 65 L 126.5 65 L 133 68 L 140 79 Q 142.7 80.1 142 77.5 L 151.5 67 L 155.5 65 L 181.5 65 L 191 72.5 L 195 82 Q 180.8 79.4 177 88.5 L 165 106 L 186.5 106 L 189.5 107 L 190.5 106 L 217 106 L 217 120 L 228.5 120 L 238 112.5 Q 246.7 82.2 268.5 65 L 273.5 62 L 289.5 74 Q 293.8 67.8 302.5 66 L 312.5 73 L 319.5 65 L 343 87.5 L 343 89.5 L 327 105.5 L 327 107 L 333.5 107 L 341 113.5 L 345.5 120 L 350.5 120 L 359 112.5 L 359 89.5 L 357 85.5 L 345.5 74 L 344 73.5 L 373.5 72 Q 384.8 68.3 391 59.5 L 392.5 57 Z M 393 67 Q 387 74 378 77 L 358 78 Q 357 81 360 80 L 365 87 L 365 114 L 358 122 L 364 122 L 364 137 L 362 137 L 365 145 Q 381 157 393 174 L 397 168 L 419 146 L 423 138 L 421 137 L 421 125 L 420 122 L 426 122 L 420 115 L 420 86 L 422 82 L 427 79 Q 414 79 405 76 L 393 67 Z M 274 69 L 271 71 Q 260 81 252 94 L 247 103 L 243 116 L 237 122 L 243 122 L 245 135 L 250 146 Q 259 160 272 172 L 277 171 L 286 164 L 288 164 L 302 173 L 302 116 L 303 114 L 304 112 Q 289 110 283 116 Q 275 121 271 131 L 272 134 L 272 133 Q 276 127 284 125 L 284 150 Q 282 154 277 154 L 266 138 L 262 122 L 263 107 Q 266 94 274 86 L 297 105 L 297 93 L 300 86 L 308 80 Q 310 81 309 79 L 303 73 Q 298 72 297 75 L 291 82 L 274 69 Z M 94 71 L 89 76 L 90 77 L 97 77 L 105 86 L 128 121 L 128 163 L 127 165 L 120 168 L 121 170 L 125 172 L 152 172 L 156 168 L 151 166 L 148 163 L 148 120 L 171 87 L 181 77 L 186 77 L 185 75 L 181 71 L 157 71 L 151 76 L 152 77 L 160 77 L 161 80 L 158 88 L 144 108 L 124 81 L 126 77 Q 132 78 131 76 L 127 71 L 94 71 Z M 492 71 L 500 92 L 505 119 L 505 131 L 504 132 L 505 134 L 507 130 L 509 131 L 509 141 L 518 138 L 522 117 L 525 108 L 522 109 Q 524 86 534 72 L 492 71 Z M 449 73 L 426 87 L 430 93 L 430 166 Q 429 168 425 167 L 429 172 L 450 172 L 449 171 L 449 140 L 460 133 L 460 153 L 462 160 L 475 178 L 484 172 Q 497 162 503 146 L 504 144 Q 492 145 485 151 L 490 151 L 484 159 L 479 151 L 479 115 L 480 114 L 480 111 L 455 122 L 451 125 L 451 74 L 449 73 Z M 320 74 L 306 89 L 321 103 L 335 89 L 320 74 Z M 133 82 L 144 98 L 153 84 L 153 82 L 133 82 Z M 304 94 L 303 106 L 315 106 L 304 94 Z M 274 95 L 268 112 L 269 122 L 271 119 Q 278 110 289 107 L 274 95 Z M 161 112 L 159 113 L 155 118 L 161 118 L 162 120 L 162 162 Q 167 169 177 173 L 183 173 L 192 167 L 192 172 L 213 172 L 215 171 L 217 168 L 213 166 L 211 166 L 211 112 L 192 112 L 190 113 L 186 118 Q 191 117 192 120 L 192 154 L 191 156 L 183 160 L 181 160 L 181 112 L 161 112 Z M 313 112 L 307 117 L 309 117 L 311 120 L 311 172 L 332 172 L 336 168 Q 331 168 330 166 L 330 120 L 332 118 Q 337 120 336 117 L 330 112 L 313 112 Z M 154 124 L 154 161 L 156 160 L 156 125 L 154 124 Z M 216 126 L 216 137 L 237 137 L 236 134 L 240 128 L 240 126 L 216 126 Z M 335 126 L 335 137 L 356 137 L 355 135 L 359 127 L 335 126 Z M 278 136 L 274 140 L 276 144 L 278 145 L 278 136 Z M 515 145 L 510 148 L 510 150 L 500 160 L 514 174 L 528 161 L 528 159 L 515 145 Z M 424 149 L 417 156 Q 418 158 415 157 L 415 159 L 413 159 L 414 161 L 424 161 L 424 149 Z " /><path fill="#FFFFFF" stroke="#FFFFFF" stroke-width="0" opacity="1" d="M 392.5 83 Q 394.8 86.7 401 86.5 L 400 87.5 L 400 114.5 L 402 118.5 L 400 120.5 L 400 145.5 L 392.5 155 L 384 144.5 L 384 120.5 L 382 117.5 L 384 115.5 L 384 87.5 L 383.5 86 L 386.5 86 L 392.5 83 Z M 392 90 L 390 92 L 390 117 L 389 118 L 390 119 L 390 143 L 391 144 Q 390 146 393 145 L 394 144 L 394 120 L 395 119 L 394 117 L 394 92 L 392 90 Z " /><path fill="#FFFFFF" stroke="#FFFFFF" stroke-width="0" opacity="1" d="M 532.5 172 Q 539.8 170.8 542 174.5 L 543 179.5 L 538.5 185 Q 532 186 530 182.5 L 529 175.5 L 532.5 172 Z M 535 173 L 531 176 Q 530 183 535 184 L 539 183 L 541 180 L 540 176 Q 539 172 535 173 Z " /><path fill="#FFFFFF" stroke="#FFFFFF" stroke-width="0" opacity="1" d="M 342.5 174 L 343 176 L 341 175.5 L 342.5 174 Z " /><path fill="#FFFFFF" stroke="#FFFFFF" stroke-width="0" opacity="1" d="M 533 175 Q 537.6 173.8 539 176.5 L 538 178.5 L 539 181 L 535.5 179 L 534.5 182 Q 531.5 180.4 533 175 Z M 536 176 Q 534 179 537 178 L 536 176 Z " /></svg>